<?xml version='1.0' encoding='utf-8'?>
<svg xmlns="http://www.w3.org/2000/svg" version="1.1" width="600px" height="976px" viewBox="0 0 600 976"> <g id="layer1"> <g style="fill:rgb(0,0,0); fill-opacity:1.0; stroke-linejoin: miter"> <path d="M304.11295,619.5804C308.89078,619.19055,313.3704,616.6679,316.2906,612.7156C317.20026,611.48486,317.72778,610.55225,318.53815,608.73285C318.98914,607.7391,319.50134,605.7668,319.7459,604.1078C319.8606,603.3357,319.91406,601.5775,319.8529,600.6295C319.57776,596.53217,318.133,592.93164,315.5338,589.8509C313.71442,587.6951,311.14587,585.8757,308.62323,584.95844C308.1416,584.78253,307.6753,584.61444,307.59125,584.5838C307.43835,584.52264,307.43835,584.45386,307.4383,549.05975L307.4307,513.597L307.26248,513.26825C307.05612,512.88605,306.6204,512.5496,306.1617,512.4197C305.9247,512.3509,305.02267,512.3356,302.96628,512.3509C300.19897,512.37384,300.09192,512.3815,299.79376,512.542C299.17456,512.8707,298.90698,513.3447,298.85352,514.18555L298.8153,514.78186L293.89978,514.78186L288.97675,514.7818L288.97675,517.6485L288.97675,520.5152L291.1936,520.5152L293.41058,520.5152L293.39526,522.1435L293.3723,523.7641L291.9734,523.78705L290.5821,523.8023L290.5821,525.8281L290.5821,527.8539L294.71014,527.85394L298.8382,527.85394L298.82294,556.10803L298.80002,584.3621L298.11197,584.57623C292.455,586.28094,288.05173,590.8829,286.4234,596.76917C285.8042,599.02435,285.60547,601.654,285.873,603.955C286.58398,609.9559,290.13864,615.1618,295.3369,617.83746C297.24048,618.8159,299.3427,619.397,301.61313,619.5804C302.6987,619.6721,302.94333,619.6721,304.11295,619.5804 Z M300.9786,612.4404C297.3398,611.653,294.38138,609.0539,293.09708,605.5069C291.23947,600.3621,293.2958,594.5446,297.89798,591.915C302.12543,589.4915,307.43835,590.386,310.6795,594.0629C312.55243,596.1805,313.508,598.7185,313.51563,601.5546C313.51563,604.6048,312.40717,607.3721,310.3432,609.45905C309.42584,610.38403,308.7608,610.88855,307.7823,611.40076C306.62793,612.00464,305.70294,612.31805,304.4569,612.5244C303.6772,612.6544,301.766,612.6085,300.9786,612.4404 Z"/> </g> </g> <g id="layer2"> <g style="fill:rgb(0,0,0); fill-opacity:1.0; stroke-linejoin: miter"> <path d="M246.1731,508.85834C246.66396,508.85834,247.2492,508.8977,247.57018,508.96695C249.94005,509.45712,251.83125,511.27893,252.42346,513.6416C252.5961,514.3472,252.57524,515.99585,252.38297,516.69336C251.94077,518.277,250.81975,519.7123,249.44405,520.4857L249.07806,520.6852L249.05858,524.5614C249.0478,526.7009,249.01266,528.68286,248.97343,528.97217C248.8551,529.9784,248.31007,530.74335,247.408,531.18555C247.03732,531.3658,246.96573,531.38806,246.43929,531.38806C246.3834,531.38806,246.32243,531.3878,246.25542,531.38745C245.63246,531.3843,245.48784,531.3647,245.22417,531.2375C244.73447,531.0148,244.24576,530.59705,243.98355,530.1804C243.53397,529.4797,243.53964,529.60547,243.5633,524.905L243.58449,520.70166L243.45273,520.61914C241.70242,519.55316,240.73325,518.32117,240.28273,516.5632C240.07896,515.7882,240.08011,514.30945,240.28535,513.5428C240.56746,512.5059,241.11981,511.53333,241.8789,510.74426C242.85306,509.73608,244.15897,509.08197,245.5632,508.8876C245.71611,508.86774,245.93335,508.85834,246.1731,508.85834 Z M248.1849,491.64023C247.77933,491.64023,247.37375,491.64825,246.94406,491.6603C246.59872,491.66833,246.2413,491.6764,245.8558,491.70047C245.77548,491.70047,245.69116,491.7085,245.60684,491.71652C236.08163,492.1703,228.14264,495.74826,222.90219,501.90833C219.85428,505.50235,217.77417,509.96378,216.8586,514.9352C216.03137,519.4689,216.11168,524.2877,217.11961,529.36755C217.71796,532.4074,217.987,533.1342,220.07916,537.38684C221.55292,540.3825,221.97858,541.36237,222.5167,542.9967C223.27567,545.3379,223.38809,546.8839,222.9544,549.21704C222.61707,550.96387,221.94244,553.83105,221.53687,555.24457C221.45255,555.4895,221.22766,556.29663,221.01883,557.0155C220.64938,558.3085,220.51288,558.7783,219.7539,561.1958L219.73785,561.1958C218.99896,562.48083,217.99503,563.9746,216.79837,565.49255C215.72617,566.9101,214.63391,569.3958,214.48132,571.0703C214.20023,573.35925,213.50551,574.60815,211.45752,576.30676C209.99982,577.5115,208.68669,578.7162,208.47386,578.95715C208.25702,579.1941,207.38562,579.99316,206.57846,580.6397C201.37012,584.5349,191.09802,597.0277,191.20242,599.29254L191.05385,599.29254Q212.71844,619.66406,242.3421,620.6961Q242.88422,620.7041,243.4223,620.7041Q257.3005,620.7041,269.56436,616.4475L270.02216,616.4475C269.978,616.3913,269.9338,616.3391,269.89365,616.2909C266.91403,612.99805,266.1912,610.3878,265.76154,601.5132C265.12305,589.76733,263.0389,582.57526,258.34457,576.4232C256.80655,574.4435,256.80255,574.3712,258.70197,571.235C258.77423,571.10645,258.84653,570.97797,258.91882,570.84143L258.93085,570.84143Q258.60156,570.7089,258.26425,570.55634L258.25623,570.55634C258.58148,569.74115,258.8907,569.02234,259.19186,568.416C259.66974,567.4602,260.44077,566.33185,260.85034,565.9745L261.15955,565.7094L267.07065,566.55676L273.0018,567.40405L273.6443,567.3237C274.45947,567.23535,274.93735,567.1229,275.6401,566.88196C277.16605,566.3479,278.76428,565.0147,279.27026,563.8341C279.67584,562.8623,279.65176,561.80615,279.15784,559.0554C278.80847,557.156,278.80847,557.11584,278.91287,556.57776C279.08154,555.8308,279.51523,555.2245,280.59946,554.2888C281.51102,553.49774,281.61142,553.38525,281.64755,553.12427C281.69574,552.81104,281.5592,552.4938,281.08536,551.7831C280.59143,551.04816,280.42276,550.68274,280.51913,550.5141C280.54324,550.46594,280.78418,550.29724,281.05322,550.1527C282.28604,549.48206,282.6836,549.0925,282.79202,548.438C282.8643,548.00024,282.784,547.69507,282.33423,546.8799C281.9688,546.21326,281.85635,545.8358,281.85236,545.43024C281.85236,545.25354,281.7881,544.76764,281.72385,544.35004C281.57526,543.45856,281.6074,543.073,281.85236,542.7879C282.13345,542.4346,282.59525,542.27795,283.5068,542.2378C283.58713,542.22974,283.66742,542.2217,283.75577,542.2217C283.80396,542.2177,283.85214,542.2177,283.90436,542.2177C284.0128,542.2177,284.1252,542.2217,284.24167,542.2217C284.26578,542.2257,284.28986,542.2257,284.31396,542.2257C284.35812,542.2257,284.4063,542.2217,284.4505,542.2217C284.77576,542.2056,285.0689,542.12537,285.74756,541.90045C287.35785,541.35034,288.03247,540.9126,288.36176,540.17773C288.6308,539.5874,288.56253,538.82043,288.1168,537.5595C287.5506,535.9693,286.64706,534.2706,283.9204,529.6406C282.23383,526.76135,281.34235,525.1792,280.74805,523.9745L280.39066,523.2396L280.6316,522.81793C281.4588,521.3964,281.71982,519.9909,281.59937,517.67786C281.4106,513.9955,280.3786,510.36536,278.62775,507.14075C277.2825,504.6751,275.3791,502.24164,273.26282,500.28598C269.43185,496.74014,264.17133,494.08176,258.44897,492.7887C257.90686,492.66824,257.3326,492.54376,257.15994,492.5036C256.5857,492.36707,252.3331,491.81693,251.46973,491.76068C250.1807,491.6804,249.18881,491.64023,248.1849,491.64023 Z"/> </g> </g> </svg>